<?xml version="1.0" encoding="UTF-8" standalone="no"?>
<!-- Generator: Adobe Illustrator 15.0.2, SVG Export Plug-In . SVG Version: 6.00 Build 0)  -->

<svg
   xmlns:dc="http://purl.org/dc/elements/1.1/"
   xmlns:cc="http://creativecommons.org/ns#"
   xmlns:rdf="http://www.w3.org/1999/02/22-rdf-syntax-ns#"
   xmlns:svg="http://www.w3.org/2000/svg"
   xmlns="http://www.w3.org/2000/svg"
   xmlns:sodipodi="http://sodipodi.sourceforge.net/DTD/sodipodi-0.dtd"
   xmlns:inkscape="http://www.inkscape.org/namespaces/inkscape"
   version="1.1"
   id="Layer_1"
   x="0px"
   y="0px"
   width="48"
   height="48"
   viewBox="0 0 48 48"
   enable-background="new 0 0 800 261.905"
   xml:space="preserve"
   inkscape:version="0.91 r13725"
   sodipodi:docname="Scratchlogo.svg"
   inkscape:export-filename="/Users/okhiroyuki/Downloads/s2a.png"
   inkscape:export-xdpi="1687.5"
   inkscape:export-ydpi="1687.5"><metadata
     id="metadata3538"><rdf:RDF><cc:Work
         rdf:about=""><dc:format>image/svg+xml</dc:format><dc:type
           rdf:resource="http://purl.org/dc/dcmitype/StillImage" /><dc:title /></cc:Work></rdf:RDF></metadata><defs
     id="defs3536" /><sodipodi:namedview
     pagecolor="#ffffff"
     bordercolor="#666666"
     borderopacity="1"
     objecttolerance="10"
     gridtolerance="10"
     guidetolerance="10"
     inkscape:pageopacity="0"
     inkscape:pageshadow="2"
     inkscape:window-width="1280"
     inkscape:window-height="751"
     id="namedview3534"
     showgrid="false"
     inkscape:zoom="5.6568542"
     inkscape:cx="-54.000682"
     inkscape:cy="20.73856"
     inkscape:window-x="0"
     inkscape:window-y="0"
     inkscape:window-maximized="1"
     inkscape:current-layer="layer2" /><g
     inkscape:groupmode="layer"
     id="layer1"
     inkscape:label="Layer 1"
     transform="translate(0,-213.905)"><g
       style="display:inline"
       id="Head"
       transform="matrix(0.57449555,0,0,0.57449555,-5.4456914,220.16917)"><g
         id="Head_1_"><path
           style="fill:#faa51d;stroke:#000000"
           inkscape:connector-curvature="0"
           id="Head_Fill"
           d="m 86.452,37.457 c -1.472,-6.447 -8.891,-7.579 -8.891,-7.579 0,0 0.176,-5.351 -2.628,-10.347 -1.856,-3.307 -8.351,-8.042 -8.351,-8.042 l -2.854,-11.55 -7.43,7.32 -2.854,1.105 C 51.905,8.221 48.726,8.052 46.959,8.137 42.23,8.362 37.732,10.173 37.732,10.173 l -12.878,-8.524 2.233,18.91 c 0.646,-0.786 -10.553,12.802 -3.477,24.22 3.319,5.36 10.159,10.124 15.599,11.947 4.062,1.36 10.833,1.737 14,1.737 2.646,0 7.768,-0.541 10.32,-0.979 3.021,-0.519 6.479,-1.629 10.055,-3.108 9.497,-3.934 14.338,-10.472 12.868,-16.919 z M 39.771,12.212 37.736,10.173 M 53.688,8.212 c 2,0.333 4.333,1.366 4.333,1.366" /><path
           style="fill:#ffffff"
           inkscape:connector-curvature="0"
           id="Muzzle"
           d="m 77.146,30.129 -2.881,-3.107 -9.113,2.661 c 0,0.01 -0.005,1.619 -1.42,2.933 -0.646,0.6 -1.583,1.138 -2.948,1.435 -4.371,0.951 -11.212,-2.277 -11.212,-2.277 l -7.784,3.417 c 0,0 -4.744,0.522 -7.244,2.956 -0.833,0.812 -1.417,1.835 -1.492,3.123 -0.493,8.398 8.68,13.252 15.083,15.602 1.778,0.652 2.388,0.851 3.472,1.139 0,0 7.424,-0.195 10.181,-0.588 3.032,-0.432 7.578,-1.758 11.154,-3.236 9.498,-3.933 14.601,-10.024 13.129,-16.471 -1.474,-6.451 -8.925,-7.587 -8.925,-7.587 z" /></g><g
         id="L_Eye"><path
           style="fill:#ffffff;stroke:#000000"
           inkscape:connector-curvature="0"
           id="Eyeball_1_"
           d="m 48.638,22.831 c 2.926,4.48 2.618,9.862 -0.682,12.015 -3.303,2.159 -8.352,0.272 -11.275,-4.208 -2.928,-4.48 -2.624,-9.86 0.678,-12.017 3.302,-2.156 8.35,-0.272 11.279,4.21" /><path
           inkscape:connector-curvature="0"
           id="Pupil_1_"
           d="m 46.85,28.719 c 0,1.081 -0.803,1.957 -1.801,1.957 -0.992,0 -1.804,-0.878 -1.804,-1.957 0,-1.08 0.812,-1.957 1.804,-1.957 0.996,0 1.801,0.877 1.801,1.957" /></g><g
         id="R_Eye"><path
           style="fill:#ffffff;stroke:#000000"
           inkscape:connector-curvature="0"
           id="Eyeball"
           d="m 72.361,19.75 c 2.925,4.479 3.283,9.419 0.492,11.243 C 70.06,32.818 65.672,30.441 62.749,25.959 59.816,21.479 59.67,16.825 62.463,15 c 2.787,-1.823 6.971,0.268 9.898,4.75" /><path
           inkscape:connector-curvature="0"
           id="Pupil"
           d="m 71.86,26.734 c 0,1.08 -0.802,1.956 -1.8,1.956 -0.993,0 -1.804,-0.877 -1.804,-1.956 0,-1.08 0.811,-1.958 1.804,-1.958 0.998,0 1.8,0.878 1.8,1.958" /></g><path
         style="fill:#5e4a42;stroke:#000000"
         inkscape:connector-curvature="0"
         id="Nose"
         d="m 60.536,32.138 c 1.854,0 4.556,-0.284 4.696,0.569 0.145,0.855 -1.709,4.203 -2.987,4.345 -1.282,0.142 -6.125,-2.353 -6.194,-3.919 -0.074,-1.566 2.774,-0.995 4.485,-0.995" /><path
         inkscape:connector-curvature="0"
         id="Whisker_3_"
         d="M 22.75,36.602 C 22.727,36.585 20.368,34.842 16.748,33.24 12.736,31.463 10.485,30.98 10.464,30.975 L 10.709,29.8 c 0.095,0.02 2.381,0.506 6.525,2.342 3.751,1.661 6.133,3.424 6.232,3.498 l -0.716,0.962 0,0 z" /><path
         inkscape:connector-curvature="0"
         id="Whisker_2_"
         d="m 16.628,41.254 c -2.035,0 -5.092,-0.276 -5.238,-0.289 l 0.107,-1.195 c 0.041,0.004 4.088,0.367 5.887,0.266 1.82,-0.104 5.412,-0.578 5.447,-0.583 l 0.157,1.189 c -0.148,0.02 -3.67,0.484 -5.537,0.591 -0.242,0.015 -0.522,0.021 -0.823,0.021 l 0,0 z" /><path
         inkscape:connector-curvature="0"
         id="Whisker_1_"
         d="M 82.524,35.475 82.33,34.29 c 0.046,-0.007 4.524,-0.744 6.761,-1.523 2.573,-0.894 4.326,-2.415 4.345,-2.43 l 0.791,0.902 c -0.078,0.068 -1.948,1.691 -4.742,2.661 -2.334,0.814 -6.774,1.544 -6.961,1.575 l 0,0 z" /><path
         inkscape:connector-curvature="0"
         id="Whisker"
         d="m 91.551,42.979 c -0.812,0 -1.905,-0.035 -3.189,-0.163 -2.858,-0.286 -5.584,-1.379 -5.699,-1.426 l 0.45,-1.112 c 0.027,0.011 2.686,1.075 5.368,1.344 2.672,0.267 4.518,0.111 4.535,0.11 l 0.104,1.195 c -0.043,0.004 -0.612,0.052 -1.569,0.052 l 0,0 z" /><path
         style="fill:none;stroke:#231f20;stroke-width:1.20000005"
         inkscape:connector-curvature="0"
         id="Mouth"
         d="m 47.545,39.447 c 0,0 10.347,3.054 14.217,3.896 3.867,0.842 10.851,1.684 10.851,1.684 0,0 -7.989,10.245 -17.327,7.645 -9.339,-2.597 -9.171,-8.485 -7.741,-13.225 z" /></g></g><g
     inkscape:groupmode="layer"
     id="layer2"
     inkscape:label="Layer 2"
     style="display:inline"
     transform="translate(0,-213.905)"><text
       xml:space="preserve"
       style="font-style:normal;font-variant:normal;font-weight:normal;font-stretch:normal;font-size:40px;line-height:125%;font-family:sans-serif;-inkscape-font-specification:sans-serif;letter-spacing:0px;word-spacing:0px;fill:#000000;fill-opacity:1;stroke:none;stroke-width:1px;stroke-linecap:butt;stroke-linejoin:miter;stroke-opacity:1"
       x="259.17926"
       y="146.13826"
       id="text5072"
       sodipodi:linespacing="125%"><tspan
         sodipodi:role="line"
         id="tspan5074"
         x="259.17926"
         y="146.13826" /></text>
<text
       xml:space="preserve"
       style="font-style:normal;font-weight:normal;font-size:40px;line-height:125%;font-family:Sans;-inkscape-font-specification:Sans;letter-spacing:0px;word-spacing:0px;fill:#000000;fill-opacity:1;stroke:none;stroke-width:1px;stroke-linecap:butt;stroke-linejoin:miter;stroke-opacity:1"
       x="194"
       y="163.905"
       id="text5076"
       sodipodi:linespacing="125%"><tspan
         sodipodi:role="line"
         id="tspan5078"
         x="194"
         y="163.905" /></text>
<path
       style="fill:#006680;fill-opacity:1;stroke:#f7f8f9;stroke-width:0.39790988;stroke-opacity:1"
       d="m 17.230587,241.99343 c -2.1658,-0.43107 -4.654692,-3.14041 -5.168065,-5.62582 -0.393458,-1.90487 0.532335,-4.80423 1.891333,-5.92317 2.290451,-1.88585 4.887692,-1.61807 9.181344,0.9466 l 2.555165,1.52624 1.974215,-2.51971 c 1.08582,-1.38582 2.424427,-2.7703 2.974709,-3.07662 2.634228,-1.4664 6.07837,-0.98802 7.890953,1.09604 1.224715,1.40813 2.003296,5.18469 1.431478,6.94518 -1.452561,4.47452 -6.09871,5.23819 -11.249414,1.84904 l -2.161219,-1.42207 -1.571565,2.20918 c -2.220662,3.12167 -4.982938,4.54579 -7.749261,3.99519 z m 4.212255,-2.82897 c 1.069767,-0.76235 3.434225,-4.04464 3.318206,-4.60632 -0.199375,-0.96527 -6.209755,-3.67639 -7.627726,-3.44067 -2.156,0.35843 -3.495688,2.66817 -2.984119,5.14486 0.754103,3.65088 4.27626,5.05232 7.293639,2.90213 z m 15.880004,-3.16322 c 2.555675,-3.04558 -0.28451,-8.19288 -4.164744,-7.54781 -1.265203,0.21034 -2.664959,1.38396 -4.226914,3.54407 l -1.428915,1.97611 1.198711,1.02916 c 1.614473,1.3861 5.011103,2.67937 6.421347,2.44493 0.678246,-0.11282 1.577252,-0.70368 2.200515,-1.44646 z"
       id="path5179"
       inkscape:connector-curvature="0" /></g></svg>